# xmcd
#
# Track frame offsets: 
#        150
#        24530
#        47070
#        70590
#        89605
#        110275
#        127515
#        144715
#        165155
#        185915
#        213590
#        237120
#        255100
#        281095
#
# Disc length: 4176 seconds
#
# Revision: 0
# Processed by: cddbd v1.5.2PL0 Copyright (c) Steve Scherf et al.
# Submitted via: ExactAudioCopyFreeDBPlugin 1.0
#
DISCID=bb104e0e
DTITLE=Koos Van Der Merwe - Leonard Cohen in Afrikaans
DYEAR=1900
DGENRE=Blues
TTITLE0=Dans my na die liefde toe
TTITLE1=Babilon
TTITLE2=Beroemde Blou Reenjas
TTITLE3=As U dit so wil
TTITLE4=Halleluja
TTITLE5=Wys my die plek
TTITLE6=Dis nie hoe ons totsiens moet se
TTITLE7=Slaapliedjie
TTITLE8=Die Gypsy se vrou
TTITLE9=Die Gaste
TTITLE10=Balade van die wegloopmerrie
TTITLE11=Suzanne
TTITLE12=Almal Weet Dit Wel
TTITLE13=Halleluja Reprise
EXTD=
EXTT0=
EXTT1=
EXTT2=
EXTT3=
EXTT4=
EXTT5=
EXTT6=
EXTT7=
EXTT8=
EXTT9=
EXTT10=
EXTT11=
EXTT12=
EXTT13=
PLAYORDER=
